<svg xmlns="http://www.w3.org/2000/svg" viewBox="0 0 1200 1200" width="1200" height="1200">
  <title>Aurora headphones — mint</title>
  <defs>
    <radialGradient id="bg" cx="600" cy="480" r="820" gradientUnits="userSpaceOnUse"><stop offset="0" stop-color="#ecfdf5"/><stop offset="1" stop-color="#6ee7b7"/></radialGradient>
    <linearGradient id="cup" x1="0" y1="0" x2="1" y2="1"><stop offset="0" stop-color="#a7f3d0"/><stop offset=".35" stop-color="#34d399"/><stop offset="1" stop-color="#047857"/></linearGradient>
    <linearGradient id="band" x1="0" y1="0" x2="0" y2="1"><stop offset="0" stop-color="#34d399"/><stop offset="1" stop-color="#047857"/></linearGradient>
    <radialGradient id="shadow"><stop offset="0" stop-color="#0f172a" stop-opacity=".35"/><stop offset="1" stop-color="#0f172a" stop-opacity="0"/></radialGradient>
  </defs>
  <rect width="1200" height="1200" fill="url(#bg)"/>
  <ellipse cx="600" cy="1010" rx="420" ry="60" fill="url(#shadow)"/>
  <g transform="rotate(6 600 600)">
    <path d="M300 700 C280 380 420 220 600 220 S920 380 900 700" fill="none" stroke="url(#band)" stroke-width="64" stroke-linecap="round"/>
    <path d="M340 640 C330 400 450 280 600 280 S870 400 860 640" fill="none" stroke="#a7f3d0" stroke-opacity=".55" stroke-width="18" stroke-linecap="round"/>
    <rect x="272" y="600" width="56" height="150" rx="20" fill="#cbd5e1"/><rect x="872" y="600" width="56" height="150" rx="20" fill="#cbd5e1"/>
    <rect x="200" y="660" width="190" height="300" rx="90" fill="url(#cup)"/><rect x="810" y="660" width="190" height="300" rx="90" fill="url(#cup)"/>
    <rect x="360" y="690" width="60" height="240" rx="30" fill="#047857"/><rect x="780" y="690" width="60" height="240" rx="30" fill="#047857"/>
    <ellipse cx="258" cy="740" rx="26" ry="56" fill="#fff" opacity=".35"/><ellipse cx="868" cy="740" rx="26" ry="56" fill="#fff" opacity=".35"/>
    <circle cx="295" cy="880" r="10" fill="#a7f3d0"/>
  </g>
</svg>