<svg xmlns="http://www.w3.org/2000/svg" viewBox="0 0 1600 1067" width="1600" height="1067">
  <title>City skyline at dusk</title>
  <defs>
    <linearGradient id="sky" x1="0" y1="0" x2="0" y2="1"><stop offset="0" stop-color="#0c4a6e"/><stop offset=".5" stop-color="#6d28d9"/><stop offset=".85" stop-color="#f472b6"/><stop offset="1" stop-color="#fdba74"/></linearGradient>
    <pattern id="win" width="28" height="36" patternUnits="userSpaceOnUse"><rect x="6" y="8" width="12" height="16" rx="1.5" fill="#fde68a" opacity=".85"/></pattern>
    <pattern id="win2" width="22" height="30" patternUnits="userSpaceOnUse"><rect x="5" y="7" width="9" height="12" rx="1" fill="#fcd34d" opacity=".6"/></pattern>
    <linearGradient id="b1" x1="0" y1="0" x2="0" y2="1"><stop offset="0" stop-color="#312e81"/><stop offset="1" stop-color="#1e1b4b"/></linearGradient>
    <linearGradient id="b2" x1="0" y1="0" x2="0" y2="1"><stop offset="0" stop-color="#1e1b4b"/><stop offset="1" stop-color="#0f0d2b"/></linearGradient>
    <linearGradient id="road" x1="0" y1="0" x2="0" y2="1"><stop offset="0" stop-color="#0f0d2b"/><stop offset="1" stop-color="#030712"/></linearGradient>
  </defs>
  <rect width="1600" height="1067" fill="url(#sky)"/>
  <circle cx="1280" cy="200" r="60" fill="#fef3c7"/><circle cx="1302" cy="186" r="60" fill="#5b21b6" opacity=".9"/>
  <g fill="#8b5cf6" opacity=".5">
    <rect x="40" y="560" width="120" height="400"/><rect x="190" y="500" width="90" height="460"/><rect x="420" y="540" width="140" height="420"/>
    <rect x="700" y="470" width="110" height="490"/><rect x="980" y="520" width="150" height="440"/><rect x="1260" y="480" width="100" height="480"/><rect x="1450" y="540" width="130" height="420"/>
  </g>
  <g fill="url(#b1)">
    <rect x="0" y="640" width="170" height="427"/><rect x="190" y="560" width="130" height="507"/><rect x="340" y="440" width="120" height="627"/><path d="M400 380 l30 60 h-60z"/>
    <rect x="480" y="600" width="150" height="467"/><rect x="650" y="360" width="140" height="707"/><rect x="700" y="300" width="40" height="60"/><rect x="716" y="240" width="8" height="60"/>
    <rect x="810" y="520" width="160" height="547"/><rect x="990" y="420" width="130" height="647"/><rect x="1140" y="580" width="150" height="487"/><rect x="1310" y="480" width="120" height="587"/><rect x="1450" y="620" width="150" height="447"/>
  </g>
  <g fill="url(#win)">
    <rect x="340" y="450" width="120" height="600"/><rect x="650" y="370" width="140" height="680"/><rect x="990" y="430" width="130" height="620"/><rect x="1310" y="490" width="120" height="560"/>
  </g>
  <g fill="url(#win2)">
    <rect x="0" y="650" width="170" height="400"/><rect x="190" y="570" width="130" height="480"/><rect x="480" y="610" width="150" height="440"/><rect x="810" y="530" width="160" height="520"/><rect x="1140" y="590" width="150" height="460"/><rect x="1450" y="630" width="150" height="420"/>
  </g>
  <rect y="960" width="1600" height="107" fill="url(#road)"/>
  <g stroke="#fde68a" stroke-width="4" stroke-dasharray="40 30" opacity=".7"><path d="M0 1015 H1600"/></g>
  <g fill="#f87171"><circle cx="300" cy="995" r="5"/><circle cx="318" cy="995" r="5"/><circle cx="1120" cy="1040" r="5"/></g>
  <g fill="#fef9c3"><circle cx="720" cy="1040" r="5"/><circle cx="738" cy="1040" r="5"/></g>
</svg>
