<svg xmlns="http://www.w3.org/2000/svg" viewBox="0 0 1067 1600" width="1067" height="1600">
  <title>Lavender field</title>
  <defs>
    <linearGradient id="sky" x1="0" y1="0" x2="0" y2="1"><stop offset="0" stop-color="#4338ca"/><stop offset=".45" stop-color="#c026d3"/><stop offset=".8" stop-color="#fb923c"/><stop offset="1" stop-color="#fde68a"/></linearGradient>
    <linearGradient id="field" x1="0" y1="0" x2="0" y2="1"><stop offset="0" stop-color="#7e22ce"/><stop offset="1" stop-color="#3b0764"/></linearGradient>
    <linearGradient id="row" x1="0" y1="0" x2="0" y2="1"><stop offset="0" stop-color="#c4b5fd"/><stop offset="1" stop-color="#a855f7"/></linearGradient>
    <radialGradient id="sun" cx="533" cy="720" r="300" gradientUnits="userSpaceOnUse"><stop offset="0" stop-color="#fffbeb"/><stop offset=".25" stop-color="#fde68a"/><stop offset="1" stop-color="#fb923c" stop-opacity="0"/></radialGradient>
  </defs>
  <rect width="1067" height="800" fill="url(#sky)"/>
  <circle cx="533" cy="760" r="300" fill="url(#sun)"/>
  <circle cx="533" cy="780" r="90" fill="#fff7ed"/>
  <path d="M0 760 C200 730 360 750 533 740 S880 720 1067 750 V800 H0Z" fill="#6b21a8" opacity=".6"/>
  <rect y="790" width="1067" height="810" fill="url(#field)"/>
  <g fill="url(#row)">
    <path d="M533 790 L-400 1600 H-250Z"/><path d="M533 790 L-120 1600 H40Z"/><path d="M533 790 L150 1600 H320Z"/><path d="M533 790 L430 1600 H610Z"/>
    <path d="M533 790 L720 1600 H900Z"/><path d="M533 790 L1000 1600 H1170Z"/><path d="M533 790 L1270 1600 H1420Z"/><path d="M533 790 L1520 1600 H1650Z"/>
  </g>
  <g fill="#e9d5ff" opacity=".55">
    <circle cx="80" cy="1500" r="10"/><circle cx="130" cy="1460" r="8"/><circle cx="380" cy="1520" r="9"/><circle cx="470" cy="1430" r="7"/><circle cx="640" cy="1500" r="9"/><circle cx="720" cy="1420" r="7"/><circle cx="930" cy="1480" r="10"/><circle cx="1000" cy="1540" r="8"/>
  </g>
  <g fill="#1e1b4b">
    <rect x="818" y="640" width="14" height="150"/>
    <ellipse cx="825" cy="610" rx="90" ry="70"/><ellipse cx="770" cy="650" rx="50" ry="36"/><ellipse cx="880" cy="645" rx="56" ry="38"/>
  </g>
</svg>
