<svg xmlns="http://www.w3.org/2000/svg" viewBox="0 0 229.6 118" width="229.6" height="118" role="img" aria-label="ean13 4006381333931"><rect width="229.6" height="118" fill="#ffffff"/><g transform="translate(19.799999999999997,0)" fill="#000000"><rect x="0" y="0" width="2" height="94"/><rect x="4" y="0" width="2" height="94"/><rect x="12" y="0" width="2" height="80"/><rect x="14" y="0" width="2" height="80"/><rect x="18" y="0" width="2" height="80"/><rect x="22" y="0" width="2" height="80"/><rect x="28" y="0" width="2" height="80"/><rect x="30" y="0" width="2" height="80"/><rect x="32" y="0" width="2" height="80"/><rect x="36" y="0" width="2" height="80"/><rect x="40" y="0" width="2" height="80"/><rect x="42" y="0" width="2" height="80"/><rect x="44" y="0" width="2" height="80"/><rect x="46" y="0" width="2" height="80"/><rect x="50" y="0" width="2" height="80"/><rect x="52" y="0" width="2" height="80"/><rect x="54" y="0" width="2" height="80"/><rect x="56" y="0" width="2" height="80"/><rect x="60" y="0" width="2" height="80"/><rect x="68" y="0" width="2" height="80"/><rect x="74" y="0" width="2" height="80"/><rect x="78" y="0" width="2" height="80"/><rect x="80" y="0" width="2" height="80"/><rect x="86" y="0" width="2" height="80"/><rect x="88" y="0" width="2" height="80"/><rect x="92" y="0" width="2" height="94"/><rect x="96" y="0" width="2" height="94"/><rect x="100" y="0" width="2" height="80"/><rect x="110" y="0" width="2" height="80"/><rect x="114" y="0" width="2" height="80"/><rect x="124" y="0" width="2" height="80"/><rect x="128" y="0" width="2" height="80"/><rect x="138" y="0" width="2" height="80"/><rect x="142" y="0" width="2" height="80"/><rect x="144" y="0" width="2" height="80"/><rect x="146" y="0" width="2" height="80"/><rect x="150" y="0" width="2" height="80"/><rect x="156" y="0" width="2" height="80"/><rect x="166" y="0" width="2" height="80"/><rect x="170" y="0" width="2" height="80"/><rect x="172" y="0" width="2" height="80"/><rect x="178" y="0" width="2" height="80"/><rect x="180" y="0" width="2" height="80"/><rect x="184" y="0" width="2" height="94"/><rect x="188" y="0" width="2" height="94"/></g><text x="14.899999999999999" y="108" text-anchor="middle" font-family="var(--o-font-mono, monospace)" font-size="14" fill="#000000">4</text><text x="32.8" y="108" text-anchor="middle" font-family="var(--o-font-mono, monospace)" font-size="14" fill="#000000">0</text><text x="46.8" y="108" text-anchor="middle" font-family="var(--o-font-mono, monospace)" font-size="14" fill="#000000">0</text><text x="60.8" y="108" text-anchor="middle" font-family="var(--o-font-mono, monospace)" font-size="14" fill="#000000">6</text><text x="74.8" y="108" text-anchor="middle" font-family="var(--o-font-mono, monospace)" font-size="14" fill="#000000">3</text><text x="88.8" y="108" text-anchor="middle" font-family="var(--o-font-mono, monospace)" font-size="14" fill="#000000">8</text><text x="102.8" y="108" text-anchor="middle" font-family="var(--o-font-mono, monospace)" font-size="14" fill="#000000">1</text><text x="126.8" y="108" text-anchor="middle" font-family="var(--o-font-mono, monospace)" font-size="14" fill="#000000">3</text><text x="140.8" y="108" text-anchor="middle" font-family="var(--o-font-mono, monospace)" font-size="14" fill="#000000">3</text><text x="154.8" y="108" text-anchor="middle" font-family="var(--o-font-mono, monospace)" font-size="14" fill="#000000">3</text><text x="168.8" y="108" text-anchor="middle" font-family="var(--o-font-mono, monospace)" font-size="14" fill="#000000">9</text><text x="182.8" y="108" text-anchor="middle" font-family="var(--o-font-mono, monospace)" font-size="14" fill="#000000">3</text><text x="196.8" y="108" text-anchor="middle" font-family="var(--o-font-mono, monospace)" font-size="14" fill="#000000">1</text></svg>