<svg xmlns="http://www.w3.org/2000/svg" viewBox="0 0 370 104" width="370" height="104" role="img" aria-label="code39 CODE39-OK"><rect width="370" height="104" fill="#ffffff"/><g transform="translate(10,0)" fill="#000000"><rect x="0" y="0" width="2" height="80"/><rect x="8" y="0" width="2" height="80"/><rect x="12" y="0" width="2" height="80"/><rect x="14" y="0" width="2" height="80"/><rect x="16" y="0" width="2" height="80"/><rect x="20" y="0" width="2" height="80"/><rect x="22" y="0" width="2" height="80"/><rect x="24" y="0" width="2" height="80"/><rect x="28" y="0" width="2" height="80"/><rect x="32" y="0" width="2" height="80"/><rect x="34" y="0" width="2" height="80"/><rect x="36" y="0" width="2" height="80"/><rect x="40" y="0" width="2" height="80"/><rect x="42" y="0" width="2" height="80"/><rect x="44" y="0" width="2" height="80"/><rect x="48" y="0" width="2" height="80"/><rect x="56" y="0" width="2" height="80"/><rect x="60" y="0" width="2" height="80"/><rect x="64" y="0" width="2" height="80"/><rect x="66" y="0" width="2" height="80"/><rect x="68" y="0" width="2" height="80"/><rect x="72" y="0" width="2" height="80"/><rect x="76" y="0" width="2" height="80"/><rect x="78" y="0" width="2" height="80"/><rect x="80" y="0" width="2" height="80"/><rect x="84" y="0" width="2" height="80"/><rect x="92" y="0" width="2" height="80"/><rect x="96" y="0" width="2" height="80"/><rect x="100" y="0" width="2" height="80"/><rect x="104" y="0" width="2" height="80"/><rect x="106" y="0" width="2" height="80"/><rect x="108" y="0" width="2" height="80"/><rect x="116" y="0" width="2" height="80"/><rect x="120" y="0" width="2" height="80"/><rect x="122" y="0" width="2" height="80"/><rect x="124" y="0" width="2" height="80"/><rect x="128" y="0" width="2" height="80"/><rect x="130" y="0" width="2" height="80"/><rect x="132" y="0" width="2" height="80"/><rect x="136" y="0" width="2" height="80"/><rect x="140" y="0" width="2" height="80"/><rect x="142" y="0" width="2" height="80"/><rect x="144" y="0" width="2" height="80"/><rect x="152" y="0" width="2" height="80"/><rect x="156" y="0" width="2" height="80"/><rect x="160" y="0" width="2" height="80"/><rect x="162" y="0" width="2" height="80"/><rect x="164" y="0" width="2" height="80"/><rect x="168" y="0" width="2" height="80"/><rect x="170" y="0" width="2" height="80"/><rect x="172" y="0" width="2" height="80"/><rect x="180" y="0" width="2" height="80"/><rect x="184" y="0" width="2" height="80"/><rect x="188" y="0" width="2" height="80"/><rect x="192" y="0" width="2" height="80"/><rect x="196" y="0" width="2" height="80"/><rect x="198" y="0" width="2" height="80"/><rect x="200" y="0" width="2" height="80"/><rect x="208" y="0" width="2" height="80"/><rect x="212" y="0" width="2" height="80"/><rect x="214" y="0" width="2" height="80"/><rect x="216" y="0" width="2" height="80"/><rect x="220" y="0" width="2" height="80"/><rect x="224" y="0" width="2" height="80"/><rect x="232" y="0" width="2" height="80"/><rect x="236" y="0" width="2" height="80"/><rect x="240" y="0" width="2" height="80"/><rect x="242" y="0" width="2" height="80"/><rect x="244" y="0" width="2" height="80"/><rect x="248" y="0" width="2" height="80"/><rect x="250" y="0" width="2" height="80"/><rect x="252" y="0" width="2" height="80"/><rect x="256" y="0" width="2" height="80"/><rect x="258" y="0" width="2" height="80"/><rect x="260" y="0" width="2" height="80"/><rect x="264" y="0" width="2" height="80"/><rect x="268" y="0" width="2" height="80"/><rect x="270" y="0" width="2" height="80"/><rect x="272" y="0" width="2" height="80"/><rect x="276" y="0" width="2" height="80"/><rect x="284" y="0" width="2" height="80"/><rect x="288" y="0" width="2" height="80"/><rect x="290" y="0" width="2" height="80"/><rect x="292" y="0" width="2" height="80"/><rect x="296" y="0" width="2" height="80"/><rect x="300" y="0" width="2" height="80"/><rect x="304" y="0" width="2" height="80"/><rect x="312" y="0" width="2" height="80"/><rect x="314" y="0" width="2" height="80"/><rect x="316" y="0" width="2" height="80"/><rect x="320" y="0" width="2" height="80"/><rect x="328" y="0" width="2" height="80"/><rect x="332" y="0" width="2" height="80"/><rect x="334" y="0" width="2" height="80"/><rect x="336" y="0" width="2" height="80"/><rect x="340" y="0" width="2" height="80"/><rect x="342" y="0" width="2" height="80"/><rect x="344" y="0" width="2" height="80"/><rect x="348" y="0" width="2" height="80"/></g><text x="185" y="94" text-anchor="middle" font-family="var(--o-font-mono, monospace)" font-size="14" fill="#000000">CODE39-OK</text></svg>