<svg xmlns="http://www.w3.org/2000/svg" viewBox="0 0 47 47" width="240" height="240" style="--o-qr-bg:#ffffff"><rect width="47" height="47" fill="#ffffff"/><g transform="translate(3,3)" fill="#000000" color="#000000"><path d="M0 0h1v1h-1zM1 0h1v1h-1zM2 0h1v1h-1zM3 0h1v1h-1zM4 0h1v1h-1zM5 0h1v1h-1zM6 0h1v1h-1zM8 0h1v1h-1zM9 0h1v1h-1zM10 0h1v1h-1zM11 0h1v1h-1zM12 0h1v1h-1zM13 0h1v1h-1zM15 0h1v1h-1zM16 0h1v1h-1zM18 0h1v1h-1zM23 0h1v1h-1zM24 0h1v1h-1zM28 0h1v1h-1zM29 0h1v1h-1zM31 0h1v1h-1zM32 0h1v1h-1zM34 0h1v1h-1zM35 0h1v1h-1zM36 0h1v1h-1zM37 0h1v1h-1zM38 0h1v1h-1zM39 0h1v1h-1zM40 0h1v1h-1zM0 1h1v1h-1zM6 1h1v1h-1zM8 1h1v1h-1zM11 1h1v1h-1zM12 1h1v1h-1zM15 1h1v1h-1zM17 1h1v1h-1zM19 1h1v1h-1zM20 1h1v1h-1zM21 1h1v1h-1zM22 1h1v1h-1zM23 1h1v1h-1zM27 1h1v1h-1zM29 1h1v1h-1zM32 1h1v1h-1zM34 1h1v1h-1zM40 1h1v1h-1zM0 2h1v1h-1zM2 2h1v1h-1zM3 2h1v1h-1zM4 2h1v1h-1zM6 2h1v1h-1zM8 2h1v1h-1zM9 2h1v1h-1zM16 2h1v1h-1zM19 2h1v1h-1zM21 2h1v1h-1zM23 2h1v1h-1zM24 2h1v1h-1zM26 2h1v1h-1zM27 2h1v1h-1zM28 2h1v1h-1zM34 2h1v1h-1zM36 2h1v1h-1zM37 2h1v1h-1zM38 2h1v1h-1zM40 2h1v1h-1zM0 3h1v1h-1zM2 3h1v1h-1zM3 3h1v1h-1zM4 3h1v1h-1zM6 3h1v1h-1zM9 3h1v1h-1zM10 3h1v1h-1zM11 3h1v1h-1zM15 3h1v1h-1zM17 3h1v1h-1zM19 3h1v1h-1zM23 3h1v1h-1zM27 3h1v1h-1zM29 3h1v1h-1zM31 3h1v1h-1zM34 3h1v1h-1zM36 3h1v1h-1zM37 3h1v1h-1zM38 3h1v1h-1zM40 3h1v1h-1zM0 4h1v1h-1zM2 4h1v1h-1zM3 4h1v1h-1zM4 4h1v1h-1zM6 4h1v1h-1zM9 4h1v1h-1zM10 4h1v1h-1zM11 4h1v1h-1zM13 4h1v1h-1zM14 4h1v1h-1zM15 4h1v1h-1zM16 4h1v1h-1zM19 4h1v1h-1zM23 4h1v1h-1zM24 4h1v1h-1zM26 4h1v1h-1zM28 4h1v1h-1zM29 4h1v1h-1zM31 4h1v1h-1zM32 4h1v1h-1zM34 4h1v1h-1zM36 4h1v1h-1zM37 4h1v1h-1zM38 4h1v1h-1zM40 4h1v1h-1zM0 5h1v1h-1zM6 5h1v1h-1zM8 5h1v1h-1zM9 5h1v1h-1zM10 5h1v1h-1zM11 5h1v1h-1zM13 5h1v1h-1zM15 5h1v1h-1zM17 5h1v1h-1zM19 5h1v1h-1zM20 5h1v1h-1zM23 5h1v1h-1zM26 5h1v1h-1zM27 5h1v1h-1zM28 5h1v1h-1zM32 5h1v1h-1zM34 5h1v1h-1zM40 5h1v1h-1zM0 6h1v1h-1zM1 6h1v1h-1zM2 6h1v1h-1zM3 6h1v1h-1zM4 6h1v1h-1zM5 6h1v1h-1zM6 6h1v1h-1zM8 6h1v1h-1zM10 6h1v1h-1zM12 6h1v1h-1zM14 6h1v1h-1zM16 6h1v1h-1zM18 6h1v1h-1zM20 6h1v1h-1zM22 6h1v1h-1zM24 6h1v1h-1zM26 6h1v1h-1zM28 6h1v1h-1zM30 6h1v1h-1zM32 6h1v1h-1zM34 6h1v1h-1zM35 6h1v1h-1zM36 6h1v1h-1zM37 6h1v1h-1zM38 6h1v1h-1zM39 6h1v1h-1zM40 6h1v1h-1zM8 7h1v1h-1zM12 7h1v1h-1zM14 7h1v1h-1zM15 7h1v1h-1zM17 7h1v1h-1zM19 7h1v1h-1zM23 7h1v1h-1zM24 7h1v1h-1zM26 7h1v1h-1zM27 7h1v1h-1zM30 7h1v1h-1zM32 7h1v1h-1zM2 8h1v1h-1zM3 8h1v1h-1zM4 8h1v1h-1zM6 8h1v1h-1zM8 8h1v1h-1zM9 8h1v1h-1zM10 8h1v1h-1zM14 8h1v1h-1zM15 8h1v1h-1zM16 8h1v1h-1zM19 8h1v1h-1zM21 8h1v1h-1zM23 8h1v1h-1zM26 8h1v1h-1zM27 8h1v1h-1zM29 8h1v1h-1zM30 8h1v1h-1zM33 8h1v1h-1zM34 8h1v1h-1zM35 8h1v1h-1zM38 8h1v1h-1zM39 8h1v1h-1zM40 8h1v1h-1zM0 9h1v1h-1zM1 9h1v1h-1zM2 9h1v1h-1zM5 9h1v1h-1zM8 9h1v1h-1zM10 9h1v1h-1zM11 9h1v1h-1zM12 9h1v1h-1zM14 9h1v1h-1zM16 9h1v1h-1zM18 9h1v1h-1zM24 9h1v1h-1zM25 9h1v1h-1zM27 9h1v1h-1zM30 9h1v1h-1zM31 9h1v1h-1zM32 9h1v1h-1zM34 9h1v1h-1zM35 9h1v1h-1zM36 9h1v1h-1zM37 9h1v1h-1zM39 9h1v1h-1zM40 9h1v1h-1zM0 10h1v1h-1zM1 10h1v1h-1zM2 10h1v1h-1zM4 10h1v1h-1zM5 10h1v1h-1zM6 10h1v1h-1zM7 10h1v1h-1zM8 10h1v1h-1zM9 10h1v1h-1zM10 10h1v1h-1zM11 10h1v1h-1zM14 10h1v1h-1zM15 10h1v1h-1zM16 10h1v1h-1zM17 10h1v1h-1zM22 10h1v1h-1zM23 10h1v1h-1zM25 10h1v1h-1zM32 10h1v1h-1zM34 10h1v1h-1zM35 10h1v1h-1zM37 10h1v1h-1zM1 11h1v1h-1zM2 11h1v1h-1zM7 11h1v1h-1zM9 11h1v1h-1zM12 11h1v1h-1zM13 11h1v1h-1zM14 11h1v1h-1zM15 11h1v1h-1zM16 11h1v1h-1zM17 11h1v1h-1zM18 11h1v1h-1zM20 11h1v1h-1zM21 11h1v1h-1zM30 11h1v1h-1zM32 11h1v1h-1zM34 11h1v1h-1zM36 11h1v1h-1zM37 11h1v1h-1zM0 12h1v1h-1zM1 12h1v1h-1zM2 12h1v1h-1zM6 12h1v1h-1zM7 12h1v1h-1zM8 12h1v1h-1zM9 12h1v1h-1zM10 12h1v1h-1zM11 12h1v1h-1zM12 12h1v1h-1zM13 12h1v1h-1zM18 12h1v1h-1zM21 12h1v1h-1zM22 12h1v1h-1zM23 12h1v1h-1zM26 12h1v1h-1zM27 12h1v1h-1zM29 12h1v1h-1zM35 12h1v1h-1zM40 12h1v1h-1zM7 13h1v1h-1zM8 13h1v1h-1zM10 13h1v1h-1zM11 13h1v1h-1zM12 13h1v1h-1zM16 13h1v1h-1zM19 13h1v1h-1zM21 13h1v1h-1zM23 13h1v1h-1zM24 13h1v1h-1zM25 13h1v1h-1zM26 13h1v1h-1zM27 13h1v1h-1zM28 13h1v1h-1zM31 13h1v1h-1zM32 13h1v1h-1zM33 13h1v1h-1zM34 13h1v1h-1zM35 13h1v1h-1zM36 13h1v1h-1zM40 13h1v1h-1zM2 14h1v1h-1zM6 14h1v1h-1zM9 14h1v1h-1zM12 14h1v1h-1zM13 14h1v1h-1zM14 14h1v1h-1zM15 14h1v1h-1zM17 14h1v1h-1zM23 14h1v1h-1zM26 14h1v1h-1zM29 14h1v1h-1zM32 14h1v1h-1zM34 14h1v1h-1zM35 14h1v1h-1zM1 15h1v1h-1zM2 15h1v1h-1zM5 15h1v1h-1zM7 15h1v1h-1zM10 15h1v1h-1zM11 15h1v1h-1zM12 15h1v1h-1zM15 15h1v1h-1zM17 15h1v1h-1zM20 15h1v1h-1zM21 15h1v1h-1zM22 15h1v1h-1zM24 15h1v1h-1zM25 15h1v1h-1zM28 15h1v1h-1zM30 15h1v1h-1zM31 15h1v1h-1zM32 15h1v1h-1zM33 15h1v1h-1zM36 15h1v1h-1zM37 15h1v1h-1zM40 15h1v1h-1zM5 16h1v1h-1zM6 16h1v1h-1zM7 16h1v1h-1zM11 16h1v1h-1zM13 16h1v1h-1zM17 16h1v1h-1zM19 16h1v1h-1zM20 16h1v1h-1zM22 16h1v1h-1zM24 16h1v1h-1zM29 16h1v1h-1zM38 16h1v1h-1zM39 16h1v1h-1zM0 17h1v1h-1zM1 17h1v1h-1zM2 17h1v1h-1zM3 17h1v1h-1zM4 17h1v1h-1zM11 17h1v1h-1zM14 17h1v1h-1zM16 17h1v1h-1zM17 17h1v1h-1zM19 17h1v1h-1zM20 17h1v1h-1zM21 17h1v1h-1zM22 17h1v1h-1zM23 17h1v1h-1zM24 17h1v1h-1zM25 17h1v1h-1zM28 17h1v1h-1zM30 17h1v1h-1zM31 17h1v1h-1zM32 17h1v1h-1zM33 17h1v1h-1zM34 17h1v1h-1zM35 17h1v1h-1zM36 17h1v1h-1zM38 17h1v1h-1zM39 17h1v1h-1zM40 17h1v1h-1zM0 18h1v1h-1zM3 18h1v1h-1zM4 18h1v1h-1zM6 18h1v1h-1zM9 18h1v1h-1zM11 18h1v1h-1zM12 18h1v1h-1zM16 18h1v1h-1zM17 18h1v1h-1zM19 18h1v1h-1zM21 18h1v1h-1zM22 18h1v1h-1zM23 18h1v1h-1zM24 18h1v1h-1zM25 18h1v1h-1zM26 18h1v1h-1zM27 18h1v1h-1zM29 18h1v1h-1zM30 18h1v1h-1zM36 18h1v1h-1zM37 18h1v1h-1zM39 18h1v1h-1zM0 19h1v1h-1zM3 19h1v1h-1zM4 19h1v1h-1zM7 19h1v1h-1zM8 19h1v1h-1zM13 19h1v1h-1zM14 19h1v1h-1zM23 19h1v1h-1zM26 19h1v1h-1zM27 19h1v1h-1zM31 19h1v1h-1zM32 19h1v1h-1zM33 19h1v1h-1zM36 19h1v1h-1zM39 19h1v1h-1zM2 20h1v1h-1zM3 20h1v1h-1zM4 20h1v1h-1zM6 20h1v1h-1zM7 20h1v1h-1zM8 20h1v1h-1zM10 20h1v1h-1zM11 20h1v1h-1zM12 20h1v1h-1zM15 20h1v1h-1zM17 20h1v1h-1zM18 20h1v1h-1zM19 20h1v1h-1zM20 20h1v1h-1zM24 20h1v1h-1zM25 20h1v1h-1zM27 20h1v1h-1zM30 20h1v1h-1zM33 20h1v1h-1zM38 20h1v1h-1zM1 21h1v1h-1zM3 21h1v1h-1zM5 21h1v1h-1zM9 21h1v1h-1zM10 21h1v1h-1zM11 21h1v1h-1zM13 21h1v1h-1zM14 21h1v1h-1zM17 21h1v1h-1zM18 21h1v1h-1zM20 21h1v1h-1zM22 21h1v1h-1zM23 21h1v1h-1zM28 21h1v1h-1zM30 21h1v1h-1zM31 21h1v1h-1zM32 21h1v1h-1zM33 21h1v1h-1zM34 21h1v1h-1zM36 21h1v1h-1zM39 21h1v1h-1zM0 22h1v1h-1zM1 22h1v1h-1zM5 22h1v1h-1zM6 22h1v1h-1zM7 22h1v1h-1zM10 22h1v1h-1zM11 22h1v1h-1zM12 22h1v1h-1zM13 22h1v1h-1zM15 22h1v1h-1zM16 22h1v1h-1zM17 22h1v1h-1zM20 22h1v1h-1zM26 22h1v1h-1zM27 22h1v1h-1zM30 22h1v1h-1zM35 22h1v1h-1zM36 22h1v1h-1zM37 22h1v1h-1zM0 23h1v1h-1zM3 23h1v1h-1zM8 23h1v1h-1zM9 23h1v1h-1zM15 23h1v1h-1zM16 23h1v1h-1zM18 23h1v1h-1zM19 23h1v1h-1zM20 23h1v1h-1zM24 23h1v1h-1zM27 23h1v1h-1zM28 23h1v1h-1zM30 23h1v1h-1zM31 23h1v1h-1zM35 23h1v1h-1zM36 23h1v1h-1zM37 23h1v1h-1zM39 23h1v1h-1zM40 23h1v1h-1zM0 24h1v1h-1zM1 24h1v1h-1zM2 24h1v1h-1zM4 24h1v1h-1zM6 24h1v1h-1zM10 24h1v1h-1zM11 24h1v1h-1zM12 24h1v1h-1zM13 24h1v1h-1zM14 24h1v1h-1zM19 24h1v1h-1zM24 24h1v1h-1zM27 24h1v1h-1zM35 24h1v1h-1zM38 24h1v1h-1zM1 25h1v1h-1zM3 25h1v1h-1zM7 25h1v1h-1zM9 25h1v1h-1zM11 25h1v1h-1zM12 25h1v1h-1zM15 25h1v1h-1zM16 25h1v1h-1zM18 25h1v1h-1zM21 25h1v1h-1zM24 25h1v1h-1zM28 25h1v1h-1zM30 25h1v1h-1zM31 25h1v1h-1zM32 25h1v1h-1zM34 25h1v1h-1zM35 25h1v1h-1zM36 25h1v1h-1zM39 25h1v1h-1zM40 25h1v1h-1zM2 26h1v1h-1zM4 26h1v1h-1zM6 26h1v1h-1zM15 26h1v1h-1zM17 26h1v1h-1zM20 26h1v1h-1zM22 26h1v1h-1zM26 26h1v1h-1zM34 26h1v1h-1zM36 26h1v1h-1zM37 26h1v1h-1zM38 26h1v1h-1zM4 27h1v1h-1zM5 27h1v1h-1zM7 27h1v1h-1zM10 27h1v1h-1zM12 27h1v1h-1zM14 27h1v1h-1zM15 27h1v1h-1zM17 27h1v1h-1zM19 27h1v1h-1zM20 27h1v1h-1zM21 27h1v1h-1zM23 27h1v1h-1zM26 27h1v1h-1zM27 27h1v1h-1zM31 27h1v1h-1zM32 27h1v1h-1zM33 27h1v1h-1zM36 27h1v1h-1zM37 27h1v1h-1zM4 28h1v1h-1zM6 28h1v1h-1zM9 28h1v1h-1zM13 28h1v1h-1zM14 28h1v1h-1zM15 28h1v1h-1zM17 28h1v1h-1zM22 28h1v1h-1zM24 28h1v1h-1zM26 28h1v1h-1zM27 28h1v1h-1zM28 28h1v1h-1zM29 28h1v1h-1zM35 28h1v1h-1zM39 28h1v1h-1zM0 29h1v1h-1zM1 29h1v1h-1zM2 29h1v1h-1zM5 29h1v1h-1zM8 29h1v1h-1zM12 29h1v1h-1zM14 29h1v1h-1zM15 29h1v1h-1zM20 29h1v1h-1zM22 29h1v1h-1zM23 29h1v1h-1zM24 29h1v1h-1zM25 29h1v1h-1zM27 29h1v1h-1zM30 29h1v1h-1zM31 29h1v1h-1zM32 29h1v1h-1zM33 29h1v1h-1zM34 29h1v1h-1zM35 29h1v1h-1zM36 29h1v1h-1zM37 29h1v1h-1zM38 29h1v1h-1zM39 29h1v1h-1zM40 29h1v1h-1zM0 30h1v1h-1zM2 30h1v1h-1zM3 30h1v1h-1zM4 30h1v1h-1zM5 30h1v1h-1zM6 30h1v1h-1zM7 30h1v1h-1zM8 30h1v1h-1zM9 30h1v1h-1zM10 30h1v1h-1zM11 30h1v1h-1zM12 30h1v1h-1zM13 30h1v1h-1zM15 30h1v1h-1zM17 30h1v1h-1zM19 30h1v1h-1zM20 30h1v1h-1zM21 30h1v1h-1zM22 30h1v1h-1zM23 30h1v1h-1zM25 30h1v1h-1zM27 30h1v1h-1zM28 30h1v1h-1zM32 30h1v1h-1zM35 30h1v1h-1zM37 30h1v1h-1zM0 31h1v1h-1zM5 31h1v1h-1zM8 31h1v1h-1zM10 31h1v1h-1zM14 31h1v1h-1zM18 31h1v1h-1zM22 31h1v1h-1zM24 31h1v1h-1zM26 31h1v1h-1zM27 31h1v1h-1zM31 31h1v1h-1zM32 31h1v1h-1zM35 31h1v1h-1zM37 31h1v1h-1zM39 31h1v1h-1zM40 31h1v1h-1zM0 32h1v1h-1zM3 32h1v1h-1zM6 32h1v1h-1zM7 32h1v1h-1zM8 32h1v1h-1zM10 32h1v1h-1zM12 32h1v1h-1zM14 32h1v1h-1zM15 32h1v1h-1zM16 32h1v1h-1zM18 32h1v1h-1zM21 32h1v1h-1zM22 32h1v1h-1zM27 32h1v1h-1zM29 32h1v1h-1zM31 32h1v1h-1zM32 32h1v1h-1zM33 32h1v1h-1zM34 32h1v1h-1zM35 32h1v1h-1zM36 32h1v1h-1zM38 32h1v1h-1zM40 32h1v1h-1zM8 33h1v1h-1zM11 33h1v1h-1zM15 33h1v1h-1zM17 33h1v1h-1zM19 33h1v1h-1zM23 33h1v1h-1zM29 33h1v1h-1zM31 33h1v1h-1zM32 33h1v1h-1zM36 33h1v1h-1zM37 33h1v1h-1zM38 33h1v1h-1zM0 34h1v1h-1zM1 34h1v1h-1zM2 34h1v1h-1zM3 34h1v1h-1zM4 34h1v1h-1zM5 34h1v1h-1zM6 34h1v1h-1zM9 34h1v1h-1zM10 34h1v1h-1zM12 34h1v1h-1zM14 34h1v1h-1zM16 34h1v1h-1zM17 34h1v1h-1zM18 34h1v1h-1zM21 34h1v1h-1zM22 34h1v1h-1zM26 34h1v1h-1zM27 34h1v1h-1zM28 34h1v1h-1zM29 34h1v1h-1zM31 34h1v1h-1zM32 34h1v1h-1zM34 34h1v1h-1zM36 34h1v1h-1zM39 34h1v1h-1zM40 34h1v1h-1zM0 35h1v1h-1zM6 35h1v1h-1zM9 35h1v1h-1zM10 35h1v1h-1zM12 35h1v1h-1zM14 35h1v1h-1zM16 35h1v1h-1zM18 35h1v1h-1zM19 35h1v1h-1zM20 35h1v1h-1zM22 35h1v1h-1zM23 35h1v1h-1zM26 35h1v1h-1zM29 35h1v1h-1zM30 35h1v1h-1zM31 35h1v1h-1zM32 35h1v1h-1zM36 35h1v1h-1zM39 35h1v1h-1zM0 36h1v1h-1zM2 36h1v1h-1zM3 36h1v1h-1zM4 36h1v1h-1zM6 36h1v1h-1zM8 36h1v1h-1zM9 36h1v1h-1zM10 36h1v1h-1zM11 36h1v1h-1zM12 36h1v1h-1zM13 36h1v1h-1zM16 36h1v1h-1zM17 36h1v1h-1zM18 36h1v1h-1zM19 36h1v1h-1zM21 36h1v1h-1zM22 36h1v1h-1zM24 36h1v1h-1zM25 36h1v1h-1zM26 36h1v1h-1zM27 36h1v1h-1zM32 36h1v1h-1zM33 36h1v1h-1zM34 36h1v1h-1zM35 36h1v1h-1zM36 36h1v1h-1zM38 36h1v1h-1zM39 36h1v1h-1zM0 37h1v1h-1zM2 37h1v1h-1zM3 37h1v1h-1zM4 37h1v1h-1zM6 37h1v1h-1zM8 37h1v1h-1zM10 37h1v1h-1zM13 37h1v1h-1zM15 37h1v1h-1zM16 37h1v1h-1zM20 37h1v1h-1zM25 37h1v1h-1zM28 37h1v1h-1zM29 37h1v1h-1zM30 37h1v1h-1zM32 37h1v1h-1zM37 37h1v1h-1zM40 37h1v1h-1zM0 38h1v1h-1zM2 38h1v1h-1zM3 38h1v1h-1zM4 38h1v1h-1zM6 38h1v1h-1zM8 38h1v1h-1zM10 38h1v1h-1zM12 38h1v1h-1zM13 38h1v1h-1zM16 38h1v1h-1zM17 38h1v1h-1zM18 38h1v1h-1zM21 38h1v1h-1zM24 38h1v1h-1zM27 38h1v1h-1zM30 38h1v1h-1zM34 38h1v1h-1zM36 38h1v1h-1zM37 38h1v1h-1zM38 38h1v1h-1zM39 38h1v1h-1zM0 39h1v1h-1zM6 39h1v1h-1zM9 39h1v1h-1zM10 39h1v1h-1zM11 39h1v1h-1zM12 39h1v1h-1zM15 39h1v1h-1zM16 39h1v1h-1zM19 39h1v1h-1zM20 39h1v1h-1zM22 39h1v1h-1zM24 39h1v1h-1zM28 39h1v1h-1zM30 39h1v1h-1zM31 39h1v1h-1zM32 39h1v1h-1zM33 39h1v1h-1zM35 39h1v1h-1zM37 39h1v1h-1zM39 39h1v1h-1zM0 40h1v1h-1zM1 40h1v1h-1zM2 40h1v1h-1zM3 40h1v1h-1zM4 40h1v1h-1zM5 40h1v1h-1zM6 40h1v1h-1zM9 40h1v1h-1zM12 40h1v1h-1zM13 40h1v1h-1zM16 40h1v1h-1zM18 40h1v1h-1zM19 40h1v1h-1zM20 40h1v1h-1zM21 40h1v1h-1zM22 40h1v1h-1zM24 40h1v1h-1zM25 40h1v1h-1zM26 40h1v1h-1zM29 40h1v1h-1zM30 40h1v1h-1zM31 40h1v1h-1zM33 40h1v1h-1zM36 40h1v1h-1zM38 40h1v1h-1z"/></g></svg>